<svg width="40" height="39" viewBox="0 0 40 39" fill="none" xmlns="http://www.w3.org/2000/svg">
<path d="M38.8998 19.308C38.9521 29.3878 30.562 37.6545 20.0951 37.7089C9.62806 37.7632 1.15258 29.5841 1.10023 19.5043C1.04788 9.4244 9.43797 1.15769 19.905 1.10333C30.3719 1.04897 38.8474 9.2281 38.8998 19.308Z" stroke="#377765" stroke-width="2"/>
<path d="M9.48606 19.7869V19.726C9.39467 19.6355 9.32212 19.5276 9.2726 19.4088C9.22309 19.2899 9.19759 19.1624 9.19759 19.0336C9.19759 18.9048 9.22309 18.7773 9.2726 18.6584C9.32212 18.5396 9.39467 18.4317 9.48606 18.3411L13.7087 14.0951L9.48606 9.84149C9.35623 9.76483 9.24563 9.65941 9.16275 9.53331C9.07986 9.40721 9.02689 9.26377 9.00788 9.11399C8.98888 8.9642 9.00435 8.81205 9.05311 8.66918C9.10186 8.52631 9.18262 8.39652 9.28918 8.28976C9.39574 8.18299 9.52528 8.10208 9.66787 8.05323C9.81047 8.00438 9.96233 7.98888 10.1118 8.00792C10.2613 8.02696 10.4045 8.08004 10.5303 8.16308C10.6562 8.24613 10.7614 8.35694 10.8379 8.48702L15.053 12.7254L15.1517 12.6189L19.2681 8.47941C19.3583 8.38848 19.4656 8.31625 19.5837 8.26684C19.7018 8.21744 19.8285 8.19183 19.9565 8.19147C20.0845 8.19112 20.2113 8.21603 20.3297 8.26478C20.4481 8.31353 20.5557 8.38517 20.6465 8.47561C20.7373 8.56604 20.8094 8.6735 20.8587 8.79185C20.908 8.9102 20.9335 9.03712 20.9339 9.16537C20.9342 9.29361 20.9094 9.42068 20.8607 9.5393C20.8121 9.65792 20.7406 9.76577 20.6503 9.8567L18.0833 12.4363L16.5643 14.0038L16.4732 14.1103L19.9364 17.6183L29.0501 8.48702C29.1403 8.39609 29.2476 8.32385 29.3657 8.27445C29.4838 8.22505 29.6105 8.19944 29.7385 8.19908C29.8665 8.19873 29.9933 8.22364 30.1117 8.27239C30.2301 8.32114 30.3378 8.39278 30.4285 8.48322C30.5193 8.57365 30.5914 8.68111 30.6407 8.79946C30.69 8.91781 30.7155 9.04473 30.7159 9.17298C30.7162 9.30122 30.6914 9.42829 30.6427 9.54691C30.5941 9.66553 30.5226 9.77338 30.4323 9.86431L21.3186 18.9955L30.288 28.0202C30.454 28.2094 30.5417 28.4548 30.5333 28.7065C30.5249 28.9582 30.421 29.1972 30.2428 29.3748C30.0645 29.5524 29.8254 29.6552 29.5742 29.6623C29.3229 29.6693 29.0784 29.5801 28.8906 29.4128L19.9212 20.3805L10.9291 29.428C10.8388 29.5189 10.7315 29.5911 10.6134 29.6406C10.4953 29.69 10.3686 29.7156 10.2406 29.7159C10.1126 29.7163 9.98581 29.6914 9.86742 29.6426C9.74903 29.5939 9.64138 29.5222 9.55062 29.4318C9.45986 29.3414 9.38777 29.2339 9.33846 29.1155C9.28915 28.9972 9.26359 28.8703 9.26323 28.742C9.26288 28.6138 9.28774 28.4867 9.3364 28.3681C9.38506 28.2495 9.45656 28.1416 9.54682 28.0507L18.5466 18.9955L15.0454 15.4724L10.8303 19.726C10.6579 19.8977 10.4279 19.999 10.1851 20.0102C9.94228 20.0215 9.70396 19.9419 9.51644 19.7869H9.48606Z" fill="#377765"/>
</svg>
