<svg xmlns="http://www.w3.org/2000/svg" viewBox="0 0 100 100"><defs><style>.cls-1{fill:#fdfffc;}</style></defs><title>Asset 1</title><g id="Layer_2" data-name="Layer 2"><g id="Layer_2-2" data-name="Layer 2"><path class="cls-1" d="M58.37,42.84a1.28,1.28,0,0,1-.91-2.19L80.91,17.2H58.37a1.28,1.28,0,1,1,0-2.57H84a1.28,1.28,0,0,1,.91,2.19L59.28,42.46A1.28,1.28,0,0,1,58.37,42.84Z"/><path class="cls-1" d="M79.48,43a5.95,5.95,0,1,1,6-5.95A6,6,0,0,1,79.48,43Zm0-9.33A3.38,3.38,0,1,0,82.86,37,3.39,3.39,0,0,0,79.48,33.64Z"/><path class="cls-1" d="M22.28,70.17a6.46,6.46,0,1,1,6.46-6.46A6.47,6.47,0,0,1,22.28,70.17Zm0-10a3.52,3.52,0,1,0,3.52,3.52A3.53,3.53,0,0,0,22.28,60.19Z"/><path class="cls-1" d="M17.12,85.43a1.47,1.47,0,0,1-1-2.51L41.5,57.52a1.47,1.47,0,1,1,2.08,2.08L18.16,85A1.46,1.46,0,0,1,17.12,85.43Z"/><path class="cls-1" d="M58.55,85.43a1.47,1.47,0,0,1-1-2.51L69.18,71.26,57.52,59.59a1.47,1.47,0,0,1,2.08-2.08L71.26,69.19,82.93,57.52A1.47,1.47,0,1,1,85,59.59L59.59,85A1.46,1.46,0,0,1,58.55,85.43Z"/><path class="cls-1" d="M87.5,2.83a9.68,9.68,0,0,1,9.67,9.67v75a9.68,9.68,0,0,1-9.67,9.67h-75A9.68,9.68,0,0,1,2.83,87.5v-75A9.68,9.68,0,0,1,12.5,2.83h75M87.5,0h-75A12.5,12.5,0,0,0,0,12.5v75A12.5,12.5,0,0,0,12.5,100h75A12.5,12.5,0,0,0,100,87.5v-75A12.5,12.5,0,0,0,87.5,0Z"/><path class="cls-1" d="M15,29.85,15,29.77a1.28,1.28,0,0,1,0-1.82l5.56-5.58-5.56-5.59A1.3,1.3,0,1,1,16.78,15l5.55,5.57.13-.14,5.42-5.44a1.28,1.28,0,1,1,1.82,1.81l-3.38,3.39-2,2.06-.12.14L28.76,27l12-12a1.28,1.28,0,1,1,1.82,1.81l-12,12L42.39,40.67a1.3,1.3,0,0,1-1.84,1.83L28.74,30.63,16.9,42.52a1.28,1.28,0,1,1-1.82-1.81l11.85-11.9-4.61-4.63-5.55,5.59a1.29,1.29,0,0,1-1.73.08Z"/></g></g></svg>