<svg width="258" height="349" viewBox="0 0 258 349" fill="none" xmlns="http://www.w3.org/2000/svg">
<path d="M107.958 60.9996L13.0479 110.266L34.307 121.305L129.217 72.0391L107.958 60.9996ZM224.127 0.702454L129.217 49.96L150.485 60.9996L245.395 11.742L224.127 0.702454Z" fill="#FDEBE5"/>
<path d="M96.3637 32.9106L75.1045 43.9502L107.958 61.0082L129.226 72.0478L224.127 121.314L245.395 110.274L150.485 60.9996L129.217 49.96L96.3637 32.9106ZM34.3154 0.702454L13.0479 11.742L53.837 32.954L75.1045 21.871L34.3154 0.702454Z" fill="#FDEBE5"/>
<path d="M117.239 0L75.1045 21.871L53.837 32.9106L11.703 54.7817L32.9705 65.8212L75.1045 43.9502L96.3637 32.9106L138.506 11.0396L117.239 0Z" fill="#FDEBE5"/>
<path d="M258 68.9432H10.6337V84.553H185.41L0 180.796L21.2591 191.836L258 68.9432Z" fill="#F6AF99"/>
<path d="M188.509 188.41C175.62 188.41 165.12 182.964 165.12 176.269C165.12 169.574 175.611 164.128 188.509 164.128C201.406 164.128 211.898 169.574 211.898 176.269C211.898 182.964 201.415 188.41 188.509 188.41ZM188.509 148.518C159.038 148.518 135.048 160.963 135.048 176.269C135.048 191.575 159.03 204.02 188.509 204.02C217.988 204.02 241.97 191.575 241.97 176.269C241.97 160.963 217.988 148.518 188.509 148.518Z" fill="#F6AF99"/>
<path d="M225.188 150.764L14.1087 260.328L35.3762 271.367L246.456 161.804L225.188 150.764Z" fill="#8EB2E6"/>
<path d="M61.0375 189.52C48.1484 189.52 37.6483 184.074 37.6483 177.379C37.6483 170.684 48.1401 165.238 61.0375 165.238C73.935 165.238 84.4268 170.684 84.4268 177.379C84.4268 184.074 73.9434 189.52 61.0375 189.52ZM61.0375 149.628C31.5671 149.628 7.57644 162.073 7.57644 177.379C7.57644 192.685 31.5588 205.13 61.0375 205.13C90.5163 205.13 114.499 192.685 114.499 177.379C114.499 162.073 90.5163 149.628 61.0375 149.628Z" fill="#8EB2E6"/>
<path d="M216.3 228.406L121.39 277.663L130.671 282.485L109.412 293.525L100.123 288.703L5.22081 337.969L26.4883 349L237.56 239.437L216.3 228.406Z" fill="#1D64CC"/>
<path d="M25.1351 227.703L3.86758 238.743L100.123 288.703L109.412 293.525L130.671 282.485L121.39 277.663L25.1351 227.703Z" fill="#1D64CC"/>
</svg>
