<svg width="214" height="214" viewBox="0 0 214 214" fill="none" xmlns="http://www.w3.org/2000/svg">
<path d="M4.78992 116.154V115.554C3.8893 114.662 3.17433 113.599 2.68637 112.428C2.19841 111.257 1.94716 110 1.94716 108.731C1.94716 107.461 2.19841 106.205 2.68637 105.033C3.17433 103.862 3.8893 102.799 4.78992 101.907L46.4023 60.0643L4.78992 18.1468C3.51047 17.3914 2.4206 16.3525 1.6038 15.1099C0.787008 13.8672 0.264962 12.4537 0.0776794 10.9776C-0.109604 9.50157 0.0428421 8.00215 0.523333 6.59425C1.00382 5.18635 1.79961 3.90733 2.84971 2.8552C3.89982 1.80307 5.17638 1.00576 6.58157 0.524341C7.98676 0.0429246 9.4833 -0.109815 10.9565 0.0778291C12.4297 0.265473 13.8405 0.788525 15.0808 1.6069C16.3211 2.42527 17.3579 3.51724 18.1119 4.79915L59.6494 46.5667L60.6224 45.5169L101.187 4.72416C102.076 3.82805 103.133 3.11624 104.297 2.62939C105.461 2.14253 106.71 1.89016 107.971 1.88668C109.233 1.88319 110.482 2.12867 111.649 2.6091C112.816 3.08952 113.876 3.79548 114.771 4.68667C115.665 5.57786 116.376 6.63683 116.862 7.80311C117.348 8.96938 117.599 10.2201 117.603 11.4839C117.606 12.7478 117.361 13.9999 116.882 15.1688C116.402 16.3378 115.698 17.4006 114.808 18.2967L89.5116 43.7172L74.5431 59.1645L73.645 60.2143L107.773 94.7832L197.584 4.79915C198.473 3.90304 199.53 3.19123 200.694 2.70437C201.859 2.21752 203.107 1.96515 204.368 1.96166C205.63 1.95818 206.879 2.20366 208.046 2.68409C209.213 3.16451 210.274 3.87047 211.168 4.76166C212.062 5.65285 212.773 6.71181 213.259 7.87809C213.745 9.04437 213.996 10.2951 214 11.5589C214.003 12.8227 213.758 14.0749 213.279 15.2438C212.799 16.4128 212.095 17.4756 211.205 18.3717L121.394 108.356L209.783 197.29C211.419 199.154 212.283 201.572 212.201 204.053C212.118 206.533 211.094 208.888 209.337 210.639C207.581 212.389 205.225 213.402 202.749 213.471C200.273 213.541 197.864 212.661 196.012 211.013L107.623 122.003L19.01 211.162C18.1205 212.059 17.0636 212.77 15.8995 213.257C14.7355 213.744 13.4872 213.996 12.2258 214C10.9644 214.003 9.71468 213.758 8.54799 213.278C7.38129 212.797 6.32047 212.091 5.42608 211.2C4.53169 210.309 3.82125 209.25 3.33533 208.084C2.84941 206.917 2.59753 205.666 2.59405 204.403C2.59058 203.139 2.83559 201.887 3.31508 200.718C3.79458 199.549 4.49918 198.486 5.38866 197.59L94.0769 108.356L59.5746 73.6369L18.037 115.554C16.3377 117.246 14.0714 118.244 11.6786 118.355C9.28573 118.466 6.93719 117.681 5.08929 116.154H4.78992Z" fill="#FF3864"/>
</svg>
