<?xml version="1.0" standalone="no"?>
<!DOCTYPE svg PUBLIC "-//W3C//DTD SVG 20010904//EN"
 "http://www.w3.org/TR/2001/REC-SVG-20010904/DTD/svg10.dtd">
<svg version="1.0" xmlns="http://www.w3.org/2000/svg"
 width="700.000000pt" height="700.000000pt" viewBox="0 0 700.000000 700.000000"
 preserveAspectRatio="xMidYMid meet">
<metadata>
Created by potrace 1.11, written by Peter Selinger 2001-2013
</metadata>
<g transform="translate(0.000000,700.000000) scale(0.100000,-0.100000)"
fill="#000000" stroke="none">
<path d="M232 6988 c-18 -5 -55 -22 -82 -39 -179 -110 -200 -370 -41 -504 48
-40 1395 -1394 1400 -1406 1 -6 -12 -25 -30 -43 -443 -438 -1343 -1352 -1364
-1383 -97 -148 -41 -371 113 -449 50 -25 68 -29 142 -29 72 0 93 4 135 27 50
26 338 310 1158 1141 l284 289 565 -568 566 -568 -137 -137 c-75 -76 -680
-685 -1346 -1354 -1461 -1468 -1451 -1458 -1474 -1503 -26 -51 -35 -97 -33
-164 7 -216 240 -359 437 -268 63 29 221 184 1510 1485 779 786 1478 1485
1486 1485 4 0 72 -65 151 -144 302 -304 2323 -2338 2523 -2540 116 -116 226
-223 245 -237 126 -93 304 -76 411 38 49 53 64 79 79 142 17 70 7 158 -24 219
-27 54 13 12 -1804 1841 -618 621 -1124 1133 -1124 1136 0 4 667 676 1482
1493 1658 1661 1536 1527 1534 1677 0 62 -5 91 -24 128 -79 165 -274 228 -440
142 -17 -9 -701 -687 -1518 -1506 l-1487 -1490 -243 248 c-134 136 -386 391
-559 565 l-314 317 38 42 c75 84 326 341 822 841 277 279 515 523 527 542 55
80 64 206 21 299 -53 115 -158 182 -287 181 -139 -1 -103 31 -883 -754 l-697
-701 -679 683 c-374 376 -690 697 -702 713 -37 47 -60 66 -119 93 -60 28 -158
37 -218 20z"/>
</g>
</svg>
